<?xml version="1.0" encoding="utf-8"?>
<!-- Generator: Adobe Illustrator 24.0.3, SVG Export Plug-In . SVG Version: 6.00 Build 0)  -->
<svg version="1.1"
	 id="Слой_1" xmlns:cc="http://creativecommons.org/ns#" xmlns:dc="http://purl.org/dc/elements/1.1/" xmlns:inkscape="http://www.inkscape.org/namespaces/inkscape" xmlns:rdf="http://www.w3.org/1999/02/22-rdf-syntax-ns#" xmlns:sodipodi="http://sodipodi.sourceforge.net/DTD/sodipodi-0.dtd" xmlns:svg="http://www.w3.org/2000/svg"
	 xmlns="http://www.w3.org/2000/svg" xmlns:xlink="http://www.w3.org/1999/xlink" x="0px" y="0px" viewBox="0 0 202.3 141.6"
	 style="enable-background:new 0 0 202.3 141.6;" xml:space="preserve">
<style type="text/css">
	.st0{fill:#FF0000;}
</style>
<g id="g5360">
	<g id="g4167" transform="matrix(5.9026317,0,0,5.9026317,521.39665,-711.31763)">
		<path id="path4156" inkscape:connector-curvature="0" class="st0" d="M-71.2,120.5c0,0-10.7,0-13.4,0.7c-1.4,0.4-2.6,1.6-3,3
			c-0.7,2.7-0.7,8.3-0.7,8.3s0,5.6,0.7,8.2c0.4,1.5,1.6,2.6,3,3c2.7,0.7,13.4,0.7,13.4,0.7s10.7,0,13.4-0.7c1.5-0.4,2.6-1.5,3-3
			c0.7-2.7,0.7-8.2,0.7-8.2s0-5.6-0.7-8.3c-0.4-1.5-1.5-2.6-3-3C-60.5,120.5-71.2,120.5-71.2,120.5z M-74.6,127.4l8.9,5.1l-8.9,5.1
			V127.4L-74.6,127.4z"/>
	</g>
</g>
</svg>
